<svg width="30" height="30" viewBox="0 0 30 30" fill="none" xmlns="http://www.w3.org/2000/svg">
<g clip-path="url(#clip0)">
<path d="M15.4322 3.33473C15.3323 3.09567 15.0562 2.98364 14.8186 3.08348L0.287531 9.17715C0.0484721 9.27746 -0.0635576 9.55214 0.0367535 9.79073C0.111752 9.97026 0.285656 10.0785 0.468935 10.0785C0.529403 10.0785 0.591277 10.0668 0.650339 10.042L15.1814 3.94831C15.4204 3.848 15.5325 3.57332 15.4322 3.33473Z" fill="#36D8D9"/>
<path d="M29.7124 9.17716L15.1813 3.08349C14.9428 2.98318 14.6676 3.09615 14.5678 3.33474C14.4674 3.57333 14.5795 3.84801 14.8185 3.94832L29.3496 10.042C29.4087 10.0668 29.4705 10.0785 29.531 10.0785C29.7143 10.0785 29.8882 9.97074 29.9632 9.79074C30.0635 9.55215 29.9515 9.27747 29.7124 9.17716Z" fill="#36D8D9"/>
<path d="M15.4322 5.20971C15.3323 4.97112 15.0562 4.85909 14.8186 4.95846L0.287531 11.0521C0.0484721 11.1524 -0.0635576 11.4271 0.0367535 11.6657C0.111752 11.8452 0.285656 11.9535 0.468935 11.9535C0.529403 11.9535 0.591277 11.9418 0.650339 11.917L15.1814 5.8233C15.4204 5.72298 15.5325 5.4483 15.4322 5.20971Z" fill="#36D8D9"/>
<path d="M29.7124 11.052L15.1813 4.95829C14.9428 4.85845 14.6676 4.97095 14.5678 5.20954C14.4674 5.44813 14.5795 5.72281 14.8185 5.82313L29.3496 11.9168C29.4087 11.9416 29.4705 11.9534 29.531 11.9534C29.7143 11.9534 29.8882 11.8455 29.9632 11.6655C30.0635 11.427 29.9515 11.1523 29.7124 11.052Z" fill="#36D8D9"/>
<path d="M0.468866 9.14099C0.20965 9.14099 0.00012207 9.35099 0.00012207 9.60973V11.4847C0.00012207 11.7435 0.20965 11.9534 0.468866 11.9534C0.728081 11.9534 0.937609 11.7435 0.937609 11.4847V9.60973C0.937609 9.35099 0.728081 9.14099 0.468866 9.14099Z" fill="#36D8D9"/>
<path d="M29.531 9.14099C29.2718 9.14099 29.0623 9.35099 29.0623 9.60973V11.4847C29.0623 11.7435 29.2718 11.9534 29.531 11.9534C29.7902 11.9534 29.9997 11.7435 29.9997 11.4847V9.60973C29.9997 9.35099 29.7902 9.14099 29.531 9.14099Z" fill="#36D8D9"/>
<path d="M2.81262 10.0331C2.5534 10.0331 2.34387 10.2431 2.34387 10.5018V26.4846C2.34387 26.7438 2.5534 26.9533 2.81262 26.9533C3.07183 26.9533 3.28136 26.7438 3.28136 26.4846V10.5018C3.28136 10.2431 3.07183 10.0331 2.81262 10.0331Z" fill="#36D8D9"/>
<path d="M27.1872 10.0331C26.928 10.0331 26.7185 10.2431 26.7185 10.5018V26.4846C26.7185 26.7438 26.928 26.9533 27.1872 26.9533C27.4465 26.9533 27.656 26.7438 27.656 26.4846V10.5018C27.656 10.2431 27.4465 10.0331 27.1872 10.0331Z" fill="#36D8D9"/>
<path d="M29.531 26.0157H0.468866C0.209651 26.0157 0.00012207 26.2253 0.00012207 26.4845C0.00012207 26.7437 0.209651 26.9532 0.468866 26.9532H29.531C29.7902 26.9532 29.9997 26.7437 29.9997 26.4845C29.9997 26.2253 29.7902 26.0157 29.531 26.0157Z" fill="#36D8D9"/>
<path d="M24.3749 11.4847H5.62512C5.3659 11.4847 5.15637 11.6947 5.15637 11.9535V26.4845C5.15637 26.7438 5.3659 26.9533 5.62512 26.9533C5.88433 26.9533 6.09386 26.7438 6.09386 26.4845V12.4222H23.9061V26.4845C23.9061 26.7438 24.1156 26.9533 24.3749 26.9533C24.6341 26.9533 24.8436 26.7438 24.8436 26.4845V11.9535C24.8436 11.6947 24.6341 11.4847 24.3749 11.4847Z" fill="#36D8D9"/>
<path d="M24.3749 13.3596H5.62512C5.3659 13.3596 5.15637 13.5696 5.15637 13.8284C5.15637 14.0871 5.3659 14.2971 5.62512 14.2971H24.3749C24.6341 14.2971 24.8436 14.0871 24.8436 13.8284C24.8436 13.5696 24.6341 13.3596 24.3749 13.3596Z" fill="#36D8D9"/>
<path d="M24.3749 15.2346H5.62512C5.3659 15.2346 5.15637 15.4446 5.15637 15.7034C5.15637 15.9626 5.3659 16.1721 5.62512 16.1721H24.3749C24.6341 16.1721 24.8436 15.9626 24.8436 15.7034C24.8436 15.4446 24.6341 15.2346 24.3749 15.2346Z" fill="#36D8D9"/>
<path d="M8.43762 24.1407C8.1784 24.1407 7.96887 24.3503 7.96887 24.6095V26.4845C7.96887 26.7437 8.1784 26.9532 8.43762 26.9532C8.69683 26.9532 8.90636 26.7437 8.90636 26.4845V24.6095C8.90636 24.3503 8.69683 24.1407 8.43762 24.1407Z" fill="#36D8D9"/>
<path d="M10.7812 24.1407C10.522 24.1407 10.3125 24.3503 10.3125 24.6095V26.4845C10.3125 26.7437 10.522 26.9532 10.7812 26.9532C11.0405 26.9532 11.25 26.7437 11.25 26.4845V24.6095C11.25 24.3503 11.0405 24.1407 10.7812 24.1407Z" fill="#36D8D9"/>
<path d="M19.2186 24.1407C18.9594 24.1407 18.7499 24.3503 18.7499 24.6095V26.4845C18.7499 26.7437 18.9594 26.9532 19.2186 26.9532C19.4778 26.9532 19.6874 26.7437 19.6874 26.4845V24.6095C19.6874 24.3503 19.4778 24.1407 19.2186 24.1407Z" fill="#36D8D9"/>
<path d="M21.5624 24.1407C21.3032 24.1407 21.0936 24.3503 21.0936 24.6095V26.4845C21.0936 26.7437 21.3032 26.9532 21.5624 26.9532C21.8216 26.9532 22.0311 26.7437 22.0311 26.4845V24.6095C22.0311 24.3503 21.8216 24.1407 21.5624 24.1407Z" fill="#36D8D9"/>
<path d="M21.5624 24.1407H8.43762C8.1784 24.1407 7.96887 24.3503 7.96887 24.6095C7.96887 24.8687 8.1784 25.0782 8.43762 25.0782H21.5624C21.8216 25.0782 22.0312 24.8687 22.0312 24.6095C22.0312 24.3503 21.8216 24.1407 21.5624 24.1407Z" fill="#36D8D9"/>
<path d="M8.43762 20.3909C8.1784 20.3909 7.96887 20.6004 7.96887 20.8596V24.6096C7.96887 24.8688 8.1784 25.0783 8.43762 25.0783C8.69683 25.0783 8.90636 24.8688 8.90636 24.6096V20.8596C8.90636 20.6004 8.69683 20.3909 8.43762 20.3909Z" fill="#36D8D9"/>
<path d="M21.5624 20.3912C21.3032 20.3912 21.0936 20.6008 21.0936 20.86V24.6095C21.0936 24.8687 21.3032 25.0782 21.5624 25.0782C21.8216 25.0782 22.0311 24.8687 22.0311 24.6095V20.86C22.0311 20.6008 21.8216 20.3912 21.5624 20.3912Z" fill="#36D8D9"/>
<path d="M13.5937 21.7971C13.3345 21.7971 13.125 22.0066 13.125 22.2659V22.7346C13.125 22.9938 13.3345 23.2034 13.5937 23.2034C13.853 23.2034 14.0625 22.9938 14.0625 22.7346V22.2659C14.0625 22.0066 13.853 21.7971 13.5937 21.7971Z" fill="#36D8D9"/>
<path d="M15 21.7971C14.7408 21.7971 14.5312 22.0066 14.5312 22.2659V22.7346C14.5312 22.9938 14.7408 23.2034 15 23.2034C15.2592 23.2034 15.4687 22.9938 15.4687 22.7346V22.2659C15.4687 22.0066 15.2592 21.7971 15 21.7971Z" fill="#36D8D9"/>
<path d="M16.4062 21.7971C16.147 21.7971 15.9375 22.0066 15.9375 22.2659V22.7346C15.9375 22.9938 16.147 23.2034 16.4062 23.2034C16.6655 23.2034 16.875 22.9938 16.875 22.7346V22.2659C16.875 22.0066 16.6655 21.7971 16.4062 21.7971Z" fill="#36D8D9"/>
<path d="M9.90195 15.2384C9.64414 15.2051 9.41071 15.3884 9.37883 15.6453L8.91009 19.3952C8.87775 19.6521 9.06009 19.8865 9.31696 19.9183C9.33664 19.9207 9.35633 19.9221 9.37555 19.9221C9.60852 19.9221 9.81054 19.7487 9.84007 19.5115L10.3088 15.7615C10.3412 15.5046 10.1588 15.2703 9.90195 15.2384Z" fill="#36D8D9"/>
<path d="M21.0899 19.3952L20.6211 15.6453C20.5892 15.3884 20.3577 15.2051 20.098 15.2384C19.8411 15.2703 19.6593 15.5046 19.6911 15.7615L20.1599 19.5115C20.1894 19.7487 20.3914 19.9221 20.6244 19.9221C20.6436 19.9221 20.6633 19.9207 20.683 19.9183C20.9399 19.8865 21.1217 19.6521 21.0899 19.3952Z" fill="#36D8D9"/>
<path d="M12.652 22.6224C12.5667 21.4586 11.1586 20.8595 10.5469 20.8595C9.90046 20.8595 9.375 21.385 9.375 22.0314C9.375 22.6778 9.90046 23.2032 10.5469 23.2032H12.1875C12.1912 23.2032 12.1945 23.2032 12.1968 23.2032C12.4556 23.2032 12.6656 22.9937 12.6651 22.7345C12.6651 22.696 12.6609 22.6585 12.652 22.6224ZM10.5469 22.2657C10.418 22.2657 10.3125 22.1603 10.3125 22.0314C10.3125 21.9025 10.418 21.797 10.5469 21.797C10.709 21.797 11.205 21.97 11.497 22.2657H10.5469Z" fill="#36D8D9"/>
<path d="M19.453 20.8595C18.822 20.8595 17.3436 21.4975 17.3436 22.7345C17.3436 22.9937 17.5532 23.2032 17.8124 23.2032H19.453C20.0994 23.2032 20.6248 22.6778 20.6248 22.0314C20.6248 21.385 20.0994 20.8595 19.453 20.8595ZM19.453 22.2657H18.5028C18.7949 21.97 19.2908 21.797 19.453 21.797C19.5819 21.797 19.6873 21.9025 19.6873 22.0314C19.6873 22.1603 19.5819 22.2657 19.453 22.2657Z" fill="#36D8D9"/>
<path d="M9.63516 19.0633C9.41907 18.9199 9.12798 18.9775 8.98501 19.1932L8.04752 20.5994C7.90362 20.815 7.96174 21.1056 8.17737 21.2495C8.25752 21.3025 8.34799 21.3283 8.43705 21.3283C8.58845 21.3283 8.73751 21.2552 8.82751 21.1197L9.765 19.7135C9.90891 19.4978 9.85078 19.2072 9.63516 19.0633Z" fill="#36D8D9"/>
<path d="M21.9524 20.5998L21.0149 19.1931C20.8715 18.9775 20.5804 18.9199 20.3647 19.0633C20.1496 19.2072 20.091 19.4978 20.2349 19.7135L21.1724 21.1202C21.2624 21.2556 21.4114 21.3287 21.5629 21.3287C21.6519 21.3287 21.7424 21.303 21.8225 21.25C22.0377 21.1061 22.0963 20.8155 21.9524 20.5998Z" fill="#36D8D9"/>
<path d="M20.6248 18.9846H9.37499C9.11578 18.9846 8.90625 19.1941 8.90625 19.4534C8.90625 19.7126 9.11578 19.9221 9.37499 19.9221H20.6248C20.8841 19.9221 21.0936 19.7126 21.0936 19.4534C21.0936 19.1941 20.8841 18.9846 20.6248 18.9846Z" fill="#36D8D9"/>
<path d="M21.5624 17.1096H20.3905C20.1313 17.1096 19.9218 17.3191 19.9218 17.5784C19.9218 17.8376 20.1313 18.0471 20.3905 18.0471H21.5624C21.8216 18.0471 22.0311 17.8376 22.0311 17.5784C22.0311 17.3191 21.8216 17.1096 21.5624 17.1096Z" fill="#36D8D9"/>
<path d="M9.60947 17.1096H8.43762C8.1784 17.1096 7.96887 17.3191 7.96887 17.5784C7.96887 17.8376 8.1784 18.0471 8.43762 18.0471H9.60947C9.86869 18.0471 10.0782 17.8376 10.0782 17.5784C10.0782 17.3191 9.86869 17.1096 9.60947 17.1096Z" fill="#36D8D9"/>
</g>
<defs>
<clipPath id="clip0">
<rect width="30" height="30" fill="white"/>
</clipPath>
</defs>
</svg>
