<svg width="98" height="46" viewBox="0 0 98 46" fill="none" xmlns="http://www.w3.org/2000/svg">
<path d="M29.256 45C28.1893 45.2133 27.4427 44.7013 27.016 43.464C26.5893 42.184 26.3547 40.3067 26.312 37.832C26.2267 34.2053 26.0987 31.176 25.928 28.744C25.8 26.2693 25.544 24.0507 25.16 22.088C21.192 23.9653 17.2667 25.6933 13.384 27.272C9.544 28.808 7.624 29.5547 7.624 29.512L7.752 43.144C7.752 43.784 7.368 44.1893 6.6 44.36C5.576 44.5733 4.89333 43.9973 4.552 42.632C4.25333 41.224 4.04 39.0267 3.912 36.04C3.82667 33.352 3.69867 31.4533 3.528 30.344C2.33333 30.9413 1.30933 31.2187 0.456 31.176C0.285333 30.8347 0.2 30.1307 0.2 29.064C0.541333 28.936 0.946667 28.7867 1.416 28.616C1.928 28.4453 2.29067 28.2533 2.504 28.04C2.76 27.784 2.888 27.4213 2.888 26.952C2.888 24.8187 2.67467 21.5333 2.248 17.096C1.77867 13.0853 1.544 9.77866 1.544 7.176L1.608 4.232C1.736 3.93333 1.88533 3.74133 2.056 3.656C2.26933 3.57067 2.54667 3.528 2.888 3.528C3.61333 3.528 3.976 3.76267 3.976 4.232L6.6 26.76C7.79467 26.4613 9.77867 25.6933 12.552 24.456C15.3253 23.2187 19.592 21.2133 25.352 18.44L25.608 4.232C25.608 2.568 26.2267 1.736 27.464 1.736C27.976 1.736 28.3173 1.928 28.488 2.312C28.7013 2.696 28.7653 3.336 28.68 4.232L28.616 15.304C28.616 19.0587 28.8293 23.944 29.256 29.96C29.384 31.1547 29.4907 32.3067 29.576 33.416C29.704 34.4827 29.8107 35.5067 29.896 36.488C30.152 39.1333 30.3227 40.8187 30.408 41.544C30.536 42.2267 30.728 42.8453 30.984 43.4C30.7707 44.2533 30.1947 44.7867 29.256 45ZM62.2195 20.936C62.2195 21.4907 61.7715 21.8747 60.8755 22.088C60.0222 22.3013 58.6355 22.4293 56.7155 22.472C56.2888 24.6907 55.7768 26.6747 55.1795 28.424C54.6248 30.1307 53.7928 31.9867 52.6835 33.992L58.8275 43.4C58.5715 43.8267 58.0595 44.04 57.2915 44.04L56.2675 43.976C54.3048 41.544 52.5342 39.2187 50.9555 37C49.1635 39.9013 47.5635 41.992 46.1555 43.272C44.7475 44.5093 43.0408 45.128 41.0355 45.128C39.3288 45.128 37.8568 44.5733 36.6195 43.464C35.4248 42.3547 34.8275 40.8613 34.8275 38.984C34.8275 37.064 35.2328 35.208 36.0435 33.416C36.8542 31.5813 38.0488 29.3413 39.6275 26.696C40.6942 24.8613 41.4835 23.432 41.9955 22.408C42.5502 21.3413 42.9768 20.296 43.2755 19.272C43.3182 16.2 43.4248 13.0853 43.5955 9.928C43.7235 7.368 43.7875 5.256 43.7875 3.592C43.7875 1.58667 44.6408 0.584 46.3475 0.584C47.7982 0.584 48.9502 1.24533 49.8035 2.568C50.6568 3.848 51.0835 5.46933 51.0835 7.432C51.0835 9.352 50.6782 11.4427 49.8675 13.704C49.0995 15.9227 47.8835 18.5253 46.2195 21.512C46.4755 22.7493 46.9875 24.1573 47.7555 25.736C48.5662 27.272 49.6328 29.128 50.9555 31.304C53.2595 26.6533 54.3048 22.8133 54.0915 19.784C54.0915 19.3147 54.8168 19.08 56.2675 19.08L59.4035 19.144C60.5128 19.144 61.2595 19.2507 61.6435 19.464C62.0275 19.6347 62.2195 20.1253 62.2195 20.936ZM41.4835 41.928C42.8915 41.928 44.1928 41.3733 45.3875 40.264C46.6248 39.112 47.9262 37.2347 49.2915 34.632C47.3288 31.688 45.4942 28.7653 43.7875 25.864C41.6968 29.448 40.2675 32.0933 39.4995 33.8C38.7315 35.5067 38.3475 37.2347 38.3475 38.984C38.3475 39.9653 38.6248 40.712 39.1795 41.224C39.7342 41.6933 40.5022 41.928 41.4835 41.928ZM95.6935 45C94.6268 45.2133 93.8802 44.7013 93.4535 43.464C93.0268 42.184 92.7922 40.3067 92.7495 37.832C92.6642 34.2053 92.5362 31.176 92.3655 28.744C92.2375 26.2693 91.9815 24.0507 91.5975 22.088C87.6295 23.9653 83.7042 25.6933 79.8215 27.272C75.9815 28.808 74.0615 29.5547 74.0615 29.512L74.1895 43.144C74.1895 43.784 73.8055 44.1893 73.0375 44.36C72.0135 44.5733 71.3308 43.9973 70.9895 42.632C70.6908 41.224 70.4775 39.0267 70.3495 36.04C70.2642 33.352 70.1362 31.4533 69.9655 30.344C68.7708 30.9413 67.7468 31.2187 66.8935 31.176C66.7228 30.8347 66.6375 30.1307 66.6375 29.064C66.9788 28.936 67.3842 28.7867 67.8535 28.616C68.3655 28.4453 68.7282 28.2533 68.9415 28.04C69.1975 27.784 69.3255 27.4213 69.3255 26.952C69.3255 24.8187 69.1122 21.5333 68.6855 17.096C68.2162 13.0853 67.9815 9.77866 67.9815 7.176L68.0455 4.232C68.1735 3.93333 68.3228 3.74133 68.4935 3.656C68.7068 3.57067 68.9842 3.528 69.3255 3.528C70.0508 3.528 70.4135 3.76267 70.4135 4.232L73.0375 26.76C74.2322 26.4613 76.2162 25.6933 78.9895 24.456C81.7628 23.2187 86.0295 21.2133 91.7895 18.44L92.0455 4.232C92.0455 2.568 92.6642 1.736 93.9015 1.736C94.4135 1.736 94.7548 1.928 94.9255 2.312C95.1388 2.696 95.2028 3.336 95.1175 4.232L95.0535 15.304C95.0535 19.0587 95.2668 23.944 95.6935 29.96C95.8215 31.1547 95.9282 32.3067 96.0135 33.416C96.1415 34.4827 96.2482 35.5067 96.3335 36.488C96.5895 39.1333 96.7602 40.8187 96.8455 41.544C96.9735 42.2267 97.1655 42.8453 97.4215 43.4C97.2082 44.2533 96.6322 44.7867 95.6935 45Z" fill="#15784E"/>
</svg>
