<svg width="30" height="30" viewBox="0 0 30 30" fill="none" xmlns="http://www.w3.org/2000/svg">
<path d="M0.9375 0.00183105C0.678281 0.00183105 0.46875 0.211831 0.46875 0.470581V29.5312C0.46875 29.7904 0.678281 30 0.9375 30C1.19672 30 1.40625 29.7904 1.40625 29.5312V0.470581C1.40625 0.211831 1.19672 0.00183105 0.9375 0.00183105Z" fill="#36D8D9"/>
<path d="M4.6875 28.5928H0.46875C0.209531 28.5928 0 28.8023 0 29.0615C0 29.3207 0.209531 29.5303 0.46875 29.5303H4.6875C4.94672 29.5303 5.15625 29.3207 5.15625 29.0615C5.15625 28.8023 4.94672 28.5928 4.6875 28.5928Z" fill="#36D8D9"/>
<path d="M4.21875 28.124C3.95953 28.124 3.75 28.3336 3.75 28.5928V29.5303C3.75 29.7895 3.95953 29.999 4.21875 29.999C4.47797 29.999 4.6875 29.7895 4.6875 29.5303V28.5928C4.6875 28.3336 4.47797 28.124 4.21875 28.124Z" fill="#36D8D9"/>
<path d="M29.5312 28.5928H25.3125C25.0533 28.5928 24.8438 28.8023 24.8438 29.0615C24.8438 29.3207 25.0533 29.5303 25.3125 29.5303H29.5312C29.7905 29.5303 30 29.3207 30 29.0615C30 28.8023 29.7905 28.5928 29.5312 28.5928Z" fill="#36D8D9"/>
<path d="M25.7812 28.124C25.522 28.124 25.3125 28.3336 25.3125 28.5928V29.5303C25.3125 29.7895 25.522 29.999 25.7812 29.999C26.0405 29.999 26.25 29.7895 26.25 29.5303V28.5928C26.25 28.3336 26.0405 28.124 25.7812 28.124Z" fill="#36D8D9"/>
<path d="M4.21875 21.5625H0.9375C0.678281 21.5625 0.46875 21.772 0.46875 22.0312C0.46875 22.2905 0.678281 22.5 0.9375 22.5H4.21875C4.47797 22.5 4.6875 22.2905 4.6875 22.0312C4.6875 21.772 4.47797 21.5625 4.21875 21.5625Z" fill="#36D8D9"/>
<path d="M9.375 0C9.11578 0 8.90625 0.21 8.90625 0.46875V10.7812C8.90625 11.04 9.11578 11.25 9.375 11.25C9.63422 11.25 9.84375 11.04 9.84375 10.7812V0.46875C9.84375 0.21 9.63422 0 9.375 0Z" fill="#36D8D9"/>
<path d="M16.875 14.5303H13.5938C13.3345 14.5303 13.125 14.7403 13.125 14.999C13.125 15.2578 13.3345 15.4678 13.5938 15.4678H16.875C17.1342 15.4678 17.3438 15.2578 17.3438 14.999C17.3438 14.7403 17.1342 14.5303 16.875 14.5303Z" fill="#36D8D9"/>
<path d="M15 14.5303C14.7408 14.5303 14.5312 14.7403 14.5312 14.999V29.5303C14.5312 29.7895 14.7408 29.999 15 29.999C15.2592 29.999 15.4688 29.7895 15.4688 29.5303V14.999C15.4688 14.7403 15.2592 14.5303 15 14.5303Z" fill="#36D8D9"/>
<path d="M29.0625 0C28.8033 0 28.5938 0.21 28.5938 0.46875V29.5303C28.5938 29.7895 28.8033 29.9991 29.0625 29.9991C29.3217 29.9991 29.5312 29.7895 29.5312 29.5303V0.46875C29.5312 0.21 29.3217 0 29.0625 0Z" fill="#36D8D9"/>
<path d="M29.5312 14.5303H19.2188C18.9595 14.5303 18.75 14.7403 18.75 14.999C18.75 15.2578 18.9595 15.4678 19.2188 15.4678H29.5312C29.7905 15.4678 30 15.2578 30 14.999C30 14.7403 29.7905 14.5303 29.5312 14.5303Z" fill="#36D8D9"/>
<path d="M12.6562 28.5928H6.5625C6.30328 28.5928 6.09375 28.8023 6.09375 29.0615C6.09375 29.3207 6.30328 29.5303 6.5625 29.5303H12.6562C12.9155 29.5303 13.125 29.3207 13.125 29.0615C13.125 28.8023 12.9155 28.5928 12.6562 28.5928Z" fill="#36D8D9"/>
<path d="M23.4375 28.5928H17.3438C17.0845 28.5928 16.875 28.8023 16.875 29.0615C16.875 29.3207 17.0845 29.5303 17.3438 29.5303H23.4375C23.6967 29.5303 23.9062 29.3207 23.9062 29.0615C23.9062 28.8023 23.6967 28.5928 23.4375 28.5928Z" fill="#36D8D9"/>
<path d="M29.5308 0.46875H25.312C25.0528 0.46875 24.8433 0.67875 24.8433 0.9375C24.8433 1.19625 25.0528 1.40625 25.312 1.40625H29.5308C29.79 1.40625 29.9995 1.19625 29.9995 0.9375C29.9995 0.67875 29.79 0.46875 29.5308 0.46875Z" fill="#36D8D9"/>
<path d="M25.7808 0C25.5215 0 25.312 0.21 25.312 0.46875V1.40625C25.312 1.665 25.5215 1.875 25.7808 1.875C26.04 1.875 26.2495 1.665 26.2495 1.40625V0.46875C26.2495 0.21 26.04 0 25.7808 0Z" fill="#36D8D9"/>
<path d="M9.84375 0.46875H0.46875C0.209531 0.46875 0 0.67875 0 0.9375C0 1.19625 0.209531 1.40625 0.46875 1.40625H9.84375C10.103 1.40625 10.3125 1.19625 10.3125 0.9375C10.3125 0.67875 10.103 0.46875 9.84375 0.46875Z" fill="#36D8D9"/>
<path d="M23.4375 0.46875H11.7188C11.4595 0.46875 11.25 0.67875 11.25 0.9375C11.25 1.19625 11.4595 1.40625 11.7188 1.40625H23.4375C23.6967 1.40625 23.9062 1.19625 23.9062 0.9375C23.9062 0.67875 23.6967 0.46875 23.4375 0.46875Z" fill="#36D8D9"/>
<path d="M13.5938 14.5303C13.3345 14.5303 13.125 14.7403 13.125 14.999C13.125 16.0331 12.2841 16.874 11.25 16.874C10.9908 16.874 10.7812 17.0836 10.7812 17.3428C10.7812 17.602 10.9908 17.8115 11.25 17.8115C12.8011 17.8115 14.0625 16.5501 14.0625 14.999C14.0625 14.7403 13.853 14.5303 13.5938 14.5303Z" fill="#36D8D9"/>
<path d="M6.5625 19.2188C5.01141 19.2188 3.75 20.4802 3.75 22.0312C3.75 22.2905 3.95953 22.5 4.21875 22.5C4.47797 22.5 4.6875 22.2905 4.6875 22.0312C4.6875 20.9972 5.52844 20.1562 6.5625 20.1562C6.82172 20.1562 7.03125 19.9467 7.03125 19.6875C7.03125 19.4283 6.82172 19.2188 6.5625 19.2188Z" fill="#36D8D9"/>
<path d="M11.25 14.5303C10.9908 14.5303 10.7812 14.7403 10.7812 14.999V17.3428C10.7812 17.602 10.9908 17.8115 11.25 17.8115C11.5092 17.8115 11.7188 17.602 11.7188 17.3428V14.999C11.7188 14.7403 11.5092 14.5303 11.25 14.5303Z" fill="#36D8D9"/>
<path d="M9.375 12.6562C8.34094 12.6562 7.5 11.8153 7.5 10.7812C7.5 10.5225 7.29047 10.3125 7.03125 10.3125C6.77203 10.3125 6.5625 10.5225 6.5625 10.7812C6.5625 12.3323 7.82391 13.5938 9.375 13.5938C9.63422 13.5938 9.84375 13.3837 9.84375 13.125C9.84375 12.8663 9.63422 12.6562 9.375 12.6562Z" fill="#36D8D9"/>
<path d="M9.375 10.3125H7.03125C6.77203 10.3125 6.5625 10.5225 6.5625 10.7812C6.5625 11.04 6.77203 11.25 7.03125 11.25H9.375C9.63422 11.25 9.84375 11.04 9.84375 10.7812C9.84375 10.5225 9.63422 10.3125 9.375 10.3125Z" fill="#36D8D9"/>
<path d="M19.2188 14.5303C18.9595 14.5303 18.75 14.7403 18.75 14.999C18.75 16.0331 17.9091 16.874 16.875 16.874C16.6158 16.874 16.4062 17.0836 16.4062 17.3428C16.4062 17.602 16.6158 17.8115 16.875 17.8115C18.4261 17.8115 19.6875 16.5501 19.6875 14.999C19.6875 14.7403 19.478 14.5303 19.2188 14.5303Z" fill="#36D8D9"/>
<path d="M16.875 14.5303C16.6158 14.5303 16.4062 14.7403 16.4062 14.999V17.3428C16.4062 17.602 16.6158 17.8115 16.875 17.8115C17.1342 17.8115 17.3438 17.602 17.3438 17.3428V14.999C17.3438 14.7403 17.1342 14.5303 16.875 14.5303Z" fill="#36D8D9"/>
<path d="M6.5625 19.2188C6.30328 19.2188 6.09375 19.4283 6.09375 19.6875V22.0312C6.09375 22.2905 6.30328 22.5 6.5625 22.5C6.82172 22.5 7.03125 22.2905 7.03125 22.0312V19.6875C7.03125 19.4283 6.82172 19.2188 6.5625 19.2188Z" fill="#36D8D9"/>
<path d="M11.25 14.5303H0.46875C0.209531 14.5303 0 14.7403 0 14.999C0 15.2578 0.209531 15.4678 0.46875 15.4678H11.25C11.5092 15.4678 11.7188 15.2578 11.7188 14.999C11.7188 14.7403 11.5092 14.5303 11.25 14.5303Z" fill="#36D8D9"/>
<path d="M9.375 21.5625H6.5625C6.30328 21.5625 6.09375 21.772 6.09375 22.0312C6.09375 22.2905 6.30328 22.5 6.5625 22.5H9.375C9.63422 22.5 9.84375 22.2905 9.84375 22.0312C9.84375 21.772 9.63422 21.5625 9.375 21.5625Z" fill="#36D8D9"/>
<path d="M9.375 12.6562C9.11578 12.6562 8.90625 12.8663 8.90625 13.125V22.5C8.90625 22.7592 9.11578 22.9688 9.375 22.9688C9.63422 22.9688 9.84375 22.7592 9.84375 22.5V13.125C9.84375 12.8663 9.63422 12.6562 9.375 12.6562Z" fill="#36D8D9"/>
<path d="M27.1875 3.28125C26.9283 3.28125 26.7188 3.49125 26.7188 3.75V6.09375C26.7188 6.3525 26.9283 6.5625 27.1875 6.5625C27.4467 6.5625 27.6562 6.3525 27.6562 6.09375V3.75C27.6562 3.49125 27.4467 3.28125 27.1875 3.28125Z" fill="#36D8D9"/>
<path d="M25.3125 3.28125C25.0533 3.28125 24.8438 3.49125 24.8438 3.75V6.09375C24.8438 6.3525 25.0533 6.5625 25.3125 6.5625C25.5717 6.5625 25.7812 6.3525 25.7812 6.09375V3.75C25.7812 3.49125 25.5717 3.28125 25.3125 3.28125Z" fill="#36D8D9"/>
<path d="M23.4375 3.28125C23.1783 3.28125 22.9688 3.49125 22.9688 3.75V6.09375C22.9688 6.3525 23.1783 6.5625 23.4375 6.5625C23.6967 6.5625 23.9062 6.3525 23.9062 6.09375V3.75C23.9062 3.49125 23.6967 3.28125 23.4375 3.28125Z" fill="#36D8D9"/>
<path d="M21.5625 3.28125C21.3033 3.28125 21.0938 3.49125 21.0938 3.75V6.09375C21.0938 6.3525 21.3033 6.5625 21.5625 6.5625C21.8217 6.5625 22.0312 6.3525 22.0312 6.09375V3.75C22.0312 3.49125 21.8217 3.28125 21.5625 3.28125Z" fill="#36D8D9"/>
<path d="M27.1875 16.4062H21.5625C21.3033 16.4062 21.0938 16.6158 21.0938 16.875V24.375C21.0938 24.6342 21.3033 24.8438 21.5625 24.8438H27.1875C27.4467 24.8438 27.6562 24.6342 27.6562 24.375V16.875C27.6562 16.6158 27.4467 16.4062 27.1875 16.4062ZM26.7188 23.9062H22.0312V17.3438H26.7188V23.9062Z" fill="#36D8D9"/>
<path d="M27.1875 18.2812H21.5625C21.3033 18.2812 21.0938 18.4908 21.0938 18.75C21.0938 19.0092 21.3033 19.2188 21.5625 19.2188H27.1875C27.4467 19.2188 27.6562 19.0092 27.6562 18.75C27.6562 18.4908 27.4467 18.2812 27.1875 18.2812Z" fill="#36D8D9"/>
<path d="M24.375 16.4062C24.1158 16.4062 23.9062 16.6158 23.9062 16.875V18.75C23.9062 19.0092 24.1158 19.2188 24.375 19.2188C24.6342 19.2188 24.8438 19.0092 24.8438 18.75V16.875C24.8438 16.6158 24.6342 16.4062 24.375 16.4062Z" fill="#36D8D9"/>
<path d="M7.03125 2.34375H3.28125C3.02203 2.34375 2.8125 2.55375 2.8125 2.8125V8.90625C2.8125 9.165 3.02203 9.375 3.28125 9.375H7.03125C7.29047 9.375 7.5 9.165 7.5 8.90625V2.8125C7.5 2.55375 7.29047 2.34375 7.03125 2.34375ZM6.5625 8.4375H3.75V3.28125H6.5625V8.4375Z" fill="#36D8D9"/>
<path d="M7.03125 4.21875H3.28125C3.02203 4.21875 2.8125 4.42875 2.8125 4.6875C2.8125 4.94625 3.02203 5.15625 3.28125 5.15625H7.03125C7.29047 5.15625 7.5 4.94625 7.5 4.6875C7.5 4.42875 7.29047 4.21875 7.03125 4.21875Z" fill="#36D8D9"/>
<path d="M18.2812 5.15625H11.25C10.9908 5.15625 10.7812 5.36625 10.7812 5.625V7.96875C10.7812 8.2275 10.9908 8.4375 11.25 8.4375H18.2812C18.5405 8.4375 18.75 8.2275 18.75 7.96875V5.625C18.75 5.36625 18.5405 5.15625 18.2812 5.15625ZM17.8125 7.5H11.7188V6.09375H17.8125V7.5Z" fill="#36D8D9"/>
<path d="M14.7656 8.90625C14.1192 8.90625 13.5938 9.43219 13.5938 10.0781C13.5938 10.7241 14.1192 11.25 14.7656 11.25C15.412 11.25 15.9375 10.7241 15.9375 10.0781C15.9375 9.43219 15.412 8.90625 14.7656 8.90625ZM14.7656 10.3125C14.6367 10.3125 14.5312 10.2075 14.5312 10.0781C14.5312 9.94875 14.6367 9.84375 14.7656 9.84375C14.8945 9.84375 15 9.94875 15 10.0781C15 10.2075 14.8945 10.3125 14.7656 10.3125Z" fill="#36D8D9"/>
<path d="M11.9531 8.90625C11.3067 8.90625 10.7812 9.43219 10.7812 10.0781C10.7812 10.7241 11.3067 11.25 11.9531 11.25C12.5995 11.25 13.125 10.7241 13.125 10.0781C13.125 9.43219 12.5995 8.90625 11.9531 8.90625ZM11.9531 10.3125C11.8242 10.3125 11.7188 10.2075 11.7188 10.0781C11.7188 9.94875 11.8242 9.84375 11.9531 9.84375C12.082 9.84375 12.1875 9.94875 12.1875 10.0781C12.1875 10.2075 12.082 10.3125 11.9531 10.3125Z" fill="#36D8D9"/>
<path d="M17.5781 8.90625C16.9317 8.90625 16.4062 9.43219 16.4062 10.0781C16.4062 10.7241 16.9317 11.25 17.5781 11.25C18.2245 11.25 18.75 10.7241 18.75 10.0781C18.75 9.43219 18.2245 8.90625 17.5781 8.90625ZM17.5781 10.3125C17.4492 10.3125 17.3438 10.2075 17.3438 10.0781C17.3438 9.94875 17.4492 9.84375 17.5781 9.84375C17.707 9.84375 17.8125 9.94875 17.8125 10.0781C17.8125 10.2075 17.707 10.3125 17.5781 10.3125Z" fill="#36D8D9"/>
<path d="M14.7656 2.34375C14.1192 2.34375 13.5938 2.86969 13.5938 3.51562C13.5938 4.16156 14.1192 4.6875 14.7656 4.6875C15.412 4.6875 15.9375 4.16156 15.9375 3.51562C15.9375 2.86969 15.412 2.34375 14.7656 2.34375ZM14.7656 3.75C14.6367 3.75 14.5312 3.645 14.5312 3.51562C14.5312 3.38625 14.6367 3.28125 14.7656 3.28125C14.8945 3.28125 15 3.38625 15 3.51562C15 3.645 14.8945 3.75 14.7656 3.75Z" fill="#36D8D9"/>
<path d="M11.9531 2.34375C11.3067 2.34375 10.7812 2.86969 10.7812 3.51562C10.7812 4.16156 11.3067 4.6875 11.9531 4.6875C12.5995 4.6875 13.125 4.16156 13.125 3.51562C13.125 2.86969 12.5995 2.34375 11.9531 2.34375ZM11.9531 3.75C11.8242 3.75 11.7188 3.645 11.7188 3.51562C11.7188 3.38625 11.8242 3.28125 11.9531 3.28125C12.082 3.28125 12.1875 3.38625 12.1875 3.51562C12.1875 3.645 12.082 3.75 11.9531 3.75Z" fill="#36D8D9"/>
<path d="M17.5781 2.34375C16.9317 2.34375 16.4062 2.86969 16.4062 3.51562C16.4062 4.16156 16.9317 4.6875 17.5781 4.6875C18.2245 4.6875 18.75 4.16156 18.75 3.51562C18.75 2.86969 18.2245 2.34375 17.5781 2.34375ZM17.5781 3.75C17.4492 3.75 17.3438 3.645 17.3438 3.51562C17.3438 3.38625 17.4492 3.28125 17.5781 3.28125C17.707 3.28125 17.8125 3.38625 17.8125 3.51562C17.8125 3.645 17.707 3.75 17.5781 3.75Z" fill="#36D8D9"/>
<path d="M20.625 11.7188C20.3658 11.7188 20.1562 11.9288 20.1562 12.1875V14.9991C20.1562 15.2578 20.3658 15.4678 20.625 15.4678C20.8842 15.4678 21.0938 15.2578 21.0938 14.9991V12.1875C21.0938 11.9288 20.8842 11.7188 20.625 11.7188Z" fill="#36D8D9"/>
<path d="M26.2495 11.7188H20.625C20.3658 11.7188 20.1562 11.9288 20.1562 12.1875C20.1562 12.4463 20.3658 12.6562 20.625 12.6562H26.2495C26.5087 12.6562 26.7183 12.4463 26.7183 12.1875C26.7183 11.9288 26.5087 11.7188 26.2495 11.7188Z" fill="#36D8D9"/>
<path d="M26.2495 8.90625C25.9903 8.90625 25.7808 9.11625 25.7808 9.375V12.1875C25.7808 12.4462 25.9903 12.6562 26.2495 12.6562C26.5087 12.6562 26.7183 12.4462 26.7183 12.1875V9.375C26.7183 9.11625 26.5087 8.90625 26.2495 8.90625Z" fill="#36D8D9"/>
<path d="M29.0625 8.90625H26.2495C25.9903 8.90625 25.7808 9.11625 25.7808 9.375C25.7808 9.63375 25.9903 9.84375 26.2495 9.84375H29.0625C29.3217 9.84375 29.5312 9.63375 29.5312 9.375C29.5312 9.11625 29.3217 8.90625 29.0625 8.90625Z" fill="#36D8D9"/>
<path d="M28.125 11.7188H25.7808C25.5215 11.7188 25.312 11.9288 25.312 12.1875C25.312 12.4463 25.5215 12.6562 25.7808 12.6562H28.125C28.3842 12.6562 28.5937 12.4463 28.5937 12.1875C28.5937 11.9288 28.3842 11.7188 28.125 11.7188Z" fill="#36D8D9"/>
<path d="M26.25 11.7188C25.9908 11.7188 25.7812 11.9287 25.7812 12.1875V14.0616C25.7812 14.3203 25.9908 14.5303 26.25 14.5303C26.5092 14.5303 26.7188 14.3203 26.7188 14.0616V12.1875C26.7188 11.9287 26.5092 11.7188 26.25 11.7188Z" fill="#36D8D9"/>
<path d="M23.4375 11.7188C23.1783 11.7188 22.9688 11.9287 22.9688 12.1875V14.0616C22.9688 14.3203 23.1783 14.5303 23.4375 14.5303C23.6967 14.5303 23.9062 14.3203 23.9062 14.0616V12.1875C23.9062 11.9287 23.6967 11.7188 23.4375 11.7188Z" fill="#36D8D9"/>
<path d="M2.34375 15.9375H0.9375C0.678281 15.9375 0.46875 16.147 0.46875 16.4062C0.46875 16.6655 0.678281 16.875 0.9375 16.875H2.34375C2.60297 16.875 2.8125 16.6655 2.8125 16.4062C2.8125 16.147 2.60297 15.9375 2.34375 15.9375Z" fill="#36D8D9"/>
<path d="M2.34375 15.9375C2.08453 15.9375 1.875 16.147 1.875 16.4062V18.75C1.875 19.0092 2.08453 19.2188 2.34375 19.2188C2.60297 19.2188 2.8125 19.0092 2.8125 18.75V16.4062C2.8125 16.147 2.60297 15.9375 2.34375 15.9375Z" fill="#36D8D9"/>
<path d="M2.34375 18.2812H0.9375C0.678281 18.2812 0.46875 18.4908 0.46875 18.75C0.46875 19.0092 0.678281 19.2188 0.9375 19.2188H2.34375C2.60297 19.2188 2.8125 19.0092 2.8125 18.75C2.8125 18.4908 2.60297 18.2812 2.34375 18.2812Z" fill="#36D8D9"/>
<path d="M3.04688 16.4062C2.40047 16.4062 1.875 16.9317 1.875 17.5781C1.875 18.2245 2.40047 18.75 3.04688 18.75C3.69328 18.75 4.21875 18.2245 4.21875 17.5781C4.21875 16.9317 3.69328 16.4062 3.04688 16.4062ZM3.04688 17.8125C2.91797 17.8125 2.8125 17.707 2.8125 17.5781C2.8125 17.4492 2.91797 17.3438 3.04688 17.3438C3.17578 17.3438 3.28125 17.4492 3.28125 17.5781C3.28125 17.707 3.17578 17.8125 3.04688 17.8125Z" fill="#36D8D9"/>
<path d="M15 21.0938H12.6562C12.397 21.0938 12.1875 21.3033 12.1875 21.5625V27.1875C12.1875 27.4467 12.397 27.6562 12.6562 27.6562H15C15.2592 27.6562 15.4688 27.4467 15.4688 27.1875V21.5625C15.4688 21.3033 15.2592 21.0938 15 21.0938ZM14.5312 26.7188H13.125V22.0312H14.5312V26.7188Z" fill="#36D8D9"/>
<path d="M14.0625 23.9062H12.6562C12.397 23.9062 12.1875 24.1158 12.1875 24.375C12.1875 24.6342 12.397 24.8438 12.6562 24.8438H14.0625C14.3217 24.8438 14.5312 24.6342 14.5312 24.375C14.5312 24.1158 14.3217 23.9062 14.0625 23.9062Z" fill="#36D8D9"/>
<path d="M2.34375 23.4375H0.9375C0.678281 23.4375 0.46875 23.647 0.46875 23.9062V27.1875C0.46875 27.4467 0.678281 27.6562 0.9375 27.6562H2.34375C2.60297 27.6562 2.8125 27.4467 2.8125 27.1875V23.9062C2.8125 23.647 2.60297 23.4375 2.34375 23.4375ZM1.875 26.7188H1.40625V24.375H1.875V26.7188Z" fill="#36D8D9"/>
<path d="M3.98437 24.375C3.33797 24.375 2.8125 24.9005 2.8125 25.5469C2.8125 26.1928 3.33797 26.7183 3.98437 26.7183C4.63031 26.7183 5.15578 26.1928 5.15578 25.5469C5.15578 24.9005 4.63031 24.375 3.98437 24.375ZM3.98437 25.7808C3.85547 25.7808 3.75 25.6758 3.75 25.5469C3.75 25.418 3.85547 25.3125 3.98437 25.3125C4.11328 25.3125 4.21828 25.418 4.21828 25.5469C4.21828 25.6758 4.11328 25.7808 3.98437 25.7808Z" fill="#36D8D9"/>
<path d="M15.4688 28.5938H14.5312C14.272 28.5938 14.0625 28.8033 14.0625 29.0625C14.0625 29.3217 14.272 29.5312 14.5312 29.5312H15.4688C15.728 29.5312 15.9375 29.3217 15.9375 29.0625C15.9375 28.8033 15.728 28.5938 15.4688 28.5938Z" fill="#36D8D9"/>
<path d="M17.3438 21.0938H15C14.7408 21.0938 14.5312 21.3033 14.5312 21.5625V27.1875C14.5312 27.4467 14.7408 27.6562 15 27.6562H17.3438C17.603 27.6562 17.8125 27.4467 17.8125 27.1875V21.5625C17.8125 21.3033 17.603 21.0938 17.3438 21.0938ZM16.875 26.7188H15.4688V22.0312H16.875V26.7188Z" fill="#36D8D9"/>
</svg>
