<svg width="564" height="68" viewBox="0 0 564 68" fill="none" xmlns="http://www.w3.org/2000/svg">
<path d="M44.384 67C42.784 67.32 41.664 66.552 41.024 64.696C40.384 62.776 40.032 59.96 39.968 56.248C39.84 50.808 39.648 46.264 39.392 42.616C39.2 38.904 38.816 35.576 38.24 32.632C32.288 35.448 26.4 38.04 20.576 40.408C14.816 42.712 11.936 43.832 11.936 43.768L12.128 64.216C12.128 65.176 11.552 65.784 10.4 66.04C8.864 66.36 7.84 65.496 7.328 63.448C6.88 61.336 6.56 58.04 6.368 53.56C6.24 49.528 6.048 46.68 5.792 45.016C4 45.912 2.464 46.328 1.184 46.264C0.928 45.752 0.8 44.696 0.8 43.096C1.312 42.904 1.92 42.68 2.624 42.424C3.392 42.168 3.936 41.88 4.256 41.56C4.64 41.176 4.832 40.632 4.832 39.928C4.832 36.728 4.512 31.8 3.872 25.144C3.168 19.128 2.816 14.168 2.816 10.264L2.912 5.848C3.104 5.4 3.328 5.112 3.584 4.984C3.904 4.856 4.32 4.792 4.832 4.792C5.92 4.792 6.464 5.144 6.464 5.848L10.4 39.64C12.192 39.192 15.168 38.04 19.328 36.184C23.488 34.328 29.888 31.32 38.528 27.16L38.912 5.848C38.912 3.352 39.84 2.10399 41.696 2.10399C42.464 2.10399 42.976 2.39199 43.232 2.96799C43.552 3.54399 43.648 4.504 43.52 5.848L43.424 22.456C43.424 28.088 43.744 35.416 44.384 44.44C44.576 46.232 44.736 47.96 44.864 49.624C45.056 51.224 45.216 52.76 45.344 54.232C45.728 58.2 45.984 60.728 46.112 61.816C46.304 62.84 46.592 63.768 46.976 64.6C46.656 65.88 45.792 66.68 44.384 67ZM75.4933 67.096C71.7173 67.096 68.2933 66.264 65.2213 64.6C62.2133 62.872 59.8453 60.504 58.1172 57.496C56.4533 54.424 55.6213 50.936 55.6213 47.032C55.6213 40.632 57.9573 35.864 62.6293 32.728C67.3653 29.592 73.1573 28.024 80.0052 28.024C83.1413 28.024 86.0533 28.792 88.7413 30.328C91.4933 31.864 93.7013 34.072 95.3653 36.952C97.0293 39.832 97.8613 43.16 97.8613 46.936C97.8613 51.032 96.8053 54.616 94.6933 57.688C92.5813 60.696 89.7973 63.032 86.3413 64.696C82.9493 66.296 79.3333 67.096 75.4933 67.096ZM74.4373 61.624C80.3893 61.624 84.9013 60.28 87.9733 57.592C91.0453 54.904 92.5813 50.968 92.5813 45.784C92.5813 42.264 91.3653 39.224 88.9333 36.664C86.5653 34.104 83.2373 32.824 78.9493 32.824C76.0693 32.824 73.1573 33.368 70.2133 34.456C67.2693 35.544 64.8373 37.176 62.9173 39.352C60.9973 41.528 60.0373 44.152 60.0373 47.224C60.0373 49.784 60.6773 52.184 61.9573 54.424C63.2373 56.6 64.9653 58.36 67.1413 59.704C69.3813 60.984 71.8133 61.624 74.4373 61.624ZM149.656 66.52C148.504 66.52 147.576 66.04 146.872 65.08C146.232 64.056 145.656 62.52 145.144 60.472C144.632 58.36 143.832 54.712 142.744 49.528C141.656 53.816 139.608 57.24 136.6 59.8C133.592 62.296 129.912 63.544 125.56 63.544C121.592 63.544 118.232 62.168 115.48 59.416C112.792 56.6 110.776 52.92 109.432 48.376C108.088 43.768 107.416 38.808 107.416 33.496C107.416 31.064 107.64 28.984 108.088 27.256C108.6 25.464 109.208 24.12 109.912 23.224C110.68 22.328 111.416 21.912 112.12 21.976C112.888 21.976 113.272 22.488 113.272 23.512C113.272 24.344 113.048 25.656 112.6 27.448C112.152 29.432 111.928 31.704 111.928 34.264C111.928 38.104 112.472 41.848 113.56 45.496C114.712 49.144 116.376 52.152 118.552 54.52C120.792 56.824 123.416 57.976 126.424 57.976C128.92 57.976 131.192 57.24 133.24 55.768C135.288 54.296 136.888 52.44 138.04 50.2C139.256 47.96 139.864 45.752 139.864 43.576V28.312C140.568 26.968 141.528 26.296 142.744 26.296C143.832 26.296 144.568 27.224 144.952 29.08C145.336 30.936 145.528 33.56 145.528 36.952C145.528 39.832 145.496 42.04 145.432 43.576C145.816 45.688 146.392 47.832 147.16 50.008C147.992 52.184 149.016 54.648 150.232 57.4C151.704 60.792 152.44 62.872 152.44 63.64C152.44 65.56 151.512 66.52 149.656 66.52ZM160.633 55.672C161.529 54.968 162.393 54.616 163.225 54.616C163.993 54.616 164.729 54.84 165.433 55.288C166.201 55.736 166.969 56.312 167.737 57.016C168.505 57.656 169.113 58.136 169.561 58.456C171.033 59.608 173.049 60.504 175.609 61.144C178.169 61.784 180.889 62.104 183.769 62.104C187.033 62.104 189.945 61.496 192.505 60.28C195.129 59 196.441 57.304 196.441 55.192C196.441 53.272 195.737 51.768 194.329 50.68C192.921 49.528 191.225 48.696 189.241 48.184C187.257 47.672 184.633 47.192 181.369 46.744C176.953 46.232 173.433 45.592 170.809 44.824C168.249 44.056 166.201 42.808 164.665 41.08C163.129 39.288 162.361 36.792 162.361 33.592C162.361 30.136 163.993 27.576 167.257 25.912C170.521 24.184 174.265 23.32 178.489 23.32C182.329 23.32 185.593 24.152 188.281 25.816C191.033 27.416 192.441 29.72 192.505 32.728C192.633 34.456 192.377 35.832 191.737 36.856C191.097 37.816 190.329 38.296 189.433 38.296C188.921 38.296 188.473 38.104 188.089 37.72C187.769 37.336 187.609 36.824 187.609 36.184C187.609 35.16 187.961 34.04 188.665 32.824C188.345 31.288 187.289 30.136 185.497 29.368C183.769 28.6 181.689 28.216 179.257 28.216C175.673 28.216 172.825 28.888 170.713 30.232C168.601 31.512 167.545 33.048 167.545 34.84C167.545 36.76 168.313 38.232 169.849 39.256C171.385 40.28 173.241 41.016 175.417 41.464C177.657 41.848 180.825 42.232 184.921 42.616C188.313 43.064 191.065 43.608 193.177 44.248C195.353 44.888 197.177 46.136 198.649 47.992C200.121 49.784 200.857 52.376 200.857 55.768C200.857 59.288 199.225 62.072 195.961 64.12C192.697 66.104 188.793 67.096 184.249 67.096C178.425 67.096 173.209 66.104 168.601 64.12C164.057 62.136 161.401 59.32 160.633 55.672ZM231.652 67C227.556 67 223.78 66.2 220.324 64.6C216.868 63 214.116 60.728 212.068 57.784C210.02 54.84 208.996 51.448 208.996 47.608C208.996 43.32 209.796 39.32 211.396 35.608C212.996 31.832 215.332 28.824 218.404 26.584C221.54 24.28 225.188 23.128 229.348 23.128C233.7 23.128 236.996 24.536 239.236 27.352C241.476 30.104 242.532 33.592 242.404 37.816C242.404 41.592 240.9 44.472 237.892 46.456C234.948 48.44 231.172 49.432 226.564 49.432C225.86 49.432 224.804 49.368 223.396 49.24C221.092 48.984 219.46 48.632 218.5 48.184C217.54 47.736 217.06 46.84 217.06 45.496C217.06 45.048 217.188 44.728 217.444 44.536C217.7 44.28 218.212 44.152 218.98 44.152C219.812 44.152 221.284 44.344 223.396 44.728C225.444 45.112 227.268 45.304 228.868 45.304C234.756 45.304 237.7 42.744 237.7 37.624C237.7 34.552 237.124 32.12 235.972 30.328C234.884 28.536 232.932 27.64 230.116 27.64C227.044 27.64 224.292 28.472 221.86 30.136C219.428 31.736 217.54 33.848 216.196 36.472C214.916 39.096 214.276 41.88 214.276 44.824C214.276 49.88 215.684 54.04 218.5 57.304C221.316 60.504 225.668 62.104 231.556 62.104C232.26 62.104 233.444 62.04 235.108 61.912C235.812 61.848 236.676 61.656 237.7 61.336C238.724 61.016 239.46 60.792 239.908 60.664C242.66 59.704 244.676 59.224 245.956 59.224C246.916 59.224 247.652 59.48 248.164 59.992C246.564 62.424 244.164 64.216 240.964 65.368C237.828 66.456 234.724 67 231.652 67ZM314.236 30.904C314.236 31.736 313.564 32.312 312.22 32.632C310.94 32.952 308.86 33.144 305.98 33.208C305.34 36.536 304.572 39.512 303.676 42.136C302.844 44.696 301.596 47.48 299.932 50.488L309.148 64.6C308.764 65.24 307.996 65.56 306.844 65.56L305.308 65.464C302.364 61.816 299.708 58.328 297.34 55C294.652 59.352 292.252 62.488 290.14 64.408C288.028 66.264 285.468 67.192 282.46 67.192C279.9 67.192 277.692 66.36 275.836 64.696C274.044 63.032 273.148 60.792 273.148 57.976C273.148 55.096 273.756 52.312 274.972 49.624C276.188 46.872 277.98 43.512 280.348 39.544C281.948 36.792 283.132 34.648 283.9 33.112C284.732 31.512 285.372 29.944 285.82 28.408C285.884 23.8 286.044 19.128 286.299 14.392C286.492 10.552 286.588 7.384 286.588 4.888C286.588 1.88 287.868 0.375999 290.428 0.375999C292.604 0.375999 294.332 1.368 295.612 3.352C296.892 5.272 297.531 7.704 297.531 10.648C297.531 13.528 296.924 16.664 295.708 20.056C294.556 23.384 292.732 27.288 290.236 31.768C290.62 33.624 291.388 35.736 292.54 38.104C293.756 40.408 295.356 43.192 297.34 46.456C300.796 39.48 302.364 33.72 302.044 29.176C302.044 28.472 303.132 28.12 305.308 28.12L310.012 28.216C311.676 28.216 312.796 28.376 313.372 28.696C313.948 28.952 314.236 29.688 314.236 30.904ZM283.132 62.392C285.244 62.392 287.196 61.56 288.988 59.896C290.844 58.168 292.796 55.352 294.844 51.448C291.9 47.032 289.148 42.648 286.588 38.296C283.452 43.672 281.308 47.64 280.156 50.2C279.004 52.76 278.428 55.352 278.428 57.976C278.428 59.448 278.844 60.568 279.676 61.336C280.508 62.04 281.66 62.392 283.132 62.392ZM388.447 67C386.847 67.32 385.727 66.552 385.087 64.696C384.447 62.776 384.095 59.96 384.031 56.248C383.903 50.808 383.711 46.264 383.455 42.616C383.263 38.904 382.879 35.576 382.303 32.632C376.351 35.448 370.463 38.04 364.639 40.408C358.879 42.712 355.999 43.832 355.999 43.768L356.191 64.216C356.191 65.176 355.615 65.784 354.463 66.04C352.927 66.36 351.903 65.496 351.391 63.448C350.943 61.336 350.623 58.04 350.431 53.56C350.303 49.528 350.111 46.68 349.855 45.016C348.063 45.912 346.527 46.328 345.247 46.264C344.991 45.752 344.863 44.696 344.863 43.096C345.375 42.904 345.983 42.68 346.687 42.424C347.455 42.168 347.999 41.88 348.319 41.56C348.703 41.176 348.895 40.632 348.895 39.928C348.895 36.728 348.575 31.8 347.935 25.144C347.231 19.128 346.879 14.168 346.879 10.264L346.975 5.848C347.167 5.4 347.391 5.112 347.647 4.984C347.967 4.856 348.383 4.792 348.895 4.792C349.983 4.792 350.527 5.144 350.527 5.848L354.463 39.64C356.255 39.192 359.231 38.04 363.391 36.184C367.551 34.328 373.951 31.32 382.591 27.16L382.975 5.848C382.975 3.352 383.903 2.10399 385.759 2.10399C386.527 2.10399 387.039 2.39199 387.295 2.96799C387.615 3.54399 387.711 4.504 387.583 5.848L387.487 22.456C387.487 28.088 387.807 35.416 388.447 44.44C388.639 46.232 388.799 47.96 388.927 49.624C389.119 51.224 389.279 52.76 389.406 54.232C389.791 58.2 390.047 60.728 390.175 61.816C390.367 62.84 390.655 63.768 391.039 64.6C390.719 65.88 389.855 66.68 388.447 67ZM419.556 67.096C415.78 67.096 412.356 66.264 409.284 64.6C406.276 62.872 403.908 60.504 402.18 57.496C400.516 54.424 399.684 50.936 399.684 47.032C399.684 40.632 402.02 35.864 406.692 32.728C411.428 29.592 417.22 28.024 424.068 28.024C427.204 28.024 430.116 28.792 432.804 30.328C435.556 31.864 437.764 34.072 439.428 36.952C441.092 39.832 441.924 43.16 441.924 46.936C441.924 51.032 440.868 54.616 438.756 57.688C436.644 60.696 433.86 63.032 430.404 64.696C427.012 66.296 423.396 67.096 419.556 67.096ZM418.5 61.624C424.452 61.624 428.964 60.28 432.036 57.592C435.108 54.904 436.644 50.968 436.644 45.784C436.644 42.264 435.428 39.224 432.996 36.664C430.628 34.104 427.3 32.824 423.012 32.824C420.132 32.824 417.22 33.368 414.276 34.456C411.332 35.544 408.9 37.176 406.98 39.352C405.06 41.528 404.1 44.152 404.1 47.224C404.1 49.784 404.74 52.184 406.02 54.424C407.3 56.6 409.028 58.36 411.204 59.704C413.444 60.984 415.876 61.624 418.5 61.624ZM511.863 67.096C510.903 67.096 510.327 66.84 510.135 66.328C509.943 65.752 509.847 64.888 509.847 63.736C509.911 63.288 509.943 62.776 509.943 62.2C509.943 61.56 509.975 61.08 510.039 60.76C510.423 57.688 510.615 54.776 510.615 52.024C510.615 45.944 509.591 41.208 507.543 37.816C505.495 34.36 502.263 32.632 497.847 32.632C495.415 32.632 492.983 33.24 490.551 34.456C488.183 35.672 486.231 37.176 484.695 38.968C483.223 40.76 482.487 42.392 482.487 43.864C482.807 45.72 483.383 47.992 484.215 50.68C484.279 51 484.535 51.992 484.983 53.656C485.495 55.32 485.751 56.824 485.751 58.168L485.847 59.992C485.847 61.016 485.335 61.528 484.311 61.528C483.031 61.528 481.975 60.696 481.143 59.032C480.375 57.368 479.511 54.776 478.551 51.256C477.591 47.8 476.663 44.952 475.767 42.712C474.871 40.472 473.655 38.552 472.119 36.952C470.583 35.352 468.631 34.552 466.263 34.552C462.999 34.552 460.439 35.672 458.583 37.912C456.791 40.152 455.895 42.904 455.895 46.168C455.895 48.344 456.087 51.224 456.471 54.808C456.791 57.496 456.951 59.8 456.951 61.72C456.951 62.872 456.823 63.736 456.567 64.312C456.311 64.888 455.703 65.176 454.743 65.176C453.463 65.176 452.567 64.76 452.055 63.928C451.543 63.032 451.287 61.688 451.287 59.896C451.287 56.376 451.095 52.12 450.711 47.128C450.647 46.488 450.519 44.856 450.327 42.232C450.135 39.544 450.103 36.856 450.231 34.168L450.327 31C450.711 30.616 451.159 30.424 451.671 30.424C452.375 30.424 452.951 30.872 453.399 31.768C453.911 32.6 454.167 33.88 454.167 35.608C455.127 33.944 456.535 32.44 458.391 31.096C460.247 29.752 462.199 29.08 464.247 29.08C467.767 29.08 470.679 29.816 472.983 31.288C475.351 32.696 477.495 35 479.415 38.2C481.207 34.936 483.895 32.152 487.479 29.848C491.127 27.544 494.871 26.392 498.711 26.392C502.679 26.392 505.975 27.896 508.599 30.904C511.287 33.912 513.239 37.528 514.455 41.752C515.735 45.976 516.375 49.88 516.375 53.464C516.375 56.664 516.087 59.736 515.511 62.68C514.999 65.624 513.783 67.096 511.863 67.096ZM546.746 67C542.65 67 538.874 66.2 535.418 64.6C531.962 63 529.21 60.728 527.162 57.784C525.114 54.84 524.09 51.448 524.09 47.608C524.09 43.32 524.89 39.32 526.49 35.608C528.09 31.832 530.426 28.824 533.498 26.584C536.634 24.28 540.282 23.128 544.442 23.128C548.794 23.128 552.09 24.536 554.33 27.352C556.57 30.104 557.626 33.592 557.498 37.816C557.498 41.592 555.994 44.472 552.986 46.456C550.042 48.44 546.266 49.432 541.658 49.432C540.954 49.432 539.898 49.368 538.49 49.24C536.186 48.984 534.554 48.632 533.594 48.184C532.634 47.736 532.154 46.84 532.154 45.496C532.154 45.048 532.282 44.728 532.538 44.536C532.794 44.28 533.306 44.152 534.074 44.152C534.906 44.152 536.378 44.344 538.49 44.728C540.538 45.112 542.362 45.304 543.962 45.304C549.85 45.304 552.794 42.744 552.794 37.624C552.794 34.552 552.218 32.12 551.066 30.328C549.978 28.536 548.026 27.64 545.21 27.64C542.138 27.64 539.386 28.472 536.954 30.136C534.522 31.736 532.634 33.848 531.29 36.472C530.01 39.096 529.37 41.88 529.37 44.824C529.37 49.88 530.778 54.04 533.594 57.304C536.41 60.504 540.762 62.104 546.65 62.104C547.354 62.104 548.538 62.04 550.202 61.912C550.906 61.848 551.77 61.656 552.794 61.336C553.818 61.016 554.554 60.792 555.002 60.664C557.754 59.704 559.77 59.224 561.05 59.224C562.01 59.224 562.746 59.48 563.258 59.992C561.658 62.424 559.258 64.216 556.058 65.368C552.922 66.456 549.818 67 546.746 67Z" fill="#15784E"/>
</svg>